<svg xmlns="http://www.w3.org/2000/svg" width="64" height="64" viewBox="0 0 64 64" version="1.1">
	<path d="M 17.754 24.246 L 32 38.491 46.246 24.246 L 60.491 10 32 10 L 3.509 10 17.754 24.246 M 0 32 L 0 51.487 9.744 41.744 L 19.487 32 9.744 22.256 L 0 12.513 0 32 M 53.993 22.507 L 44.526 32.013 54.263 41.750 L 64 51.487 64 32.244 C 64 21.660, 63.879 13, 63.730 13 C 63.582 13, 59.200 17.278, 53.993 22.507 M 13.127 44.372 C 5.783 51.747, 4.173 53.853, 5.492 54.359 C 7.673 55.195, 56.327 55.195, 58.508 54.359 C 59.827 53.853, 58.217 51.747, 50.873 44.372 L 41.567 35.027 38.314 38.180 C 33.965 42.396, 30.035 42.396, 25.686 38.180 L 22.433 35.027 13.127 44.372" stroke="none" fill="#000000" fill-rule="evenodd"/>
</svg>